<svg id="_x33_0" enable-background="new 0 0 64 64" height="512" viewBox="0 0 64 64" width="512" xmlns="http://www.w3.org/2000/svg"><g><g><g><path d="m32 56v2h-4c-5.52 0-10-4.48-10-10v-2h4c5.52 0 10 4.48 10 10z" fill="#b4dd7f"/></g><g><path d="m32 56c0-5.52 4.48-10 10-10h4v2c0 5.52-4.48 10-10 10h-4z" fill="#b4dd7f"/></g><g><path d="m43.38 12.38c.4.4.62.94.62 1.5 0 .58-.24 1.12-.62 1.5s-.92.62-1.5.62c-.56 0-1.1-.22-1.5-.62l-.38-.38-8-8-8 8-.38.38c-.4.4-.94.62-1.5.62-.58 0-1.12-.24-1.5-.62s-.62-.92-.62-1.5c0-.56.22-1.1.62-1.5l9.67-9.67c.46-.46 1.07-.71 1.71-.71s1.25.25 1.71.71z" fill="#cf9e76"/></g><g><path d="m40 15v10c0 .55-.45 1-1 1h-5v-6h-4v6h-5c-.55 0-1-.45-1-1v-10l8-8z" fill="#e6e9ed"/></g><g><path d="m34 20v6h-2-2v-6z" fill="#aab2bd"/></g><g><path d="m62 32.64v1.36c0 1.1-.9 2-2 2h-2c0-1.1-.9-2-2-2s-2 .9-2 2h-6c0-1.1-.9-2-2-2s-2 .9-2 2h-2c-1.1 0-2-.9-2-2v-1.36c0-.95.67-1.77 1.61-1.96l3.39-.68.62-2.49c.22-.89 1.02-1.51 1.94-1.51h6.88c.92 0 1.72.62 1.94 1.51l.62 2.49 3.39.68c.94.19 1.61 1.01 1.61 1.96z" fill="#ff826e"/></g><g><circle cx="56" cy="36" fill="#969faa" r="2"/></g><g><circle cx="46" cy="36" fill="#969faa" r="2"/></g><g><circle cx="12" cy="32" fill="#fcd770" r="10"/></g></g><g><path d="m13 27.184v-2.184h-2v2h-2v3c0 1.654 1.346 3 3 3 .552 0 1 .449 1 1v1h-1c-.552 0-1-.449-1-1v-1h-2v1c0 1.302.839 2.402 2 2.816v2.184h2v-2h2v-3c0-1.654-1.346-3-3-3-.552 0-1-.449-1-1v-1h1c.552 0 1 .449 1 1v1h2v-1c0-1.302-.839-2.402-2-2.816z"/><path d="m61 61h2v2h-2z"/><path d="m1 61h2v2h-2z"/><path d="m60.589 29.698-2.772-.554-.468-1.871c-.334-1.338-1.532-2.273-2.911-2.273h-6.877c-1.379 0-2.576.935-2.91 2.272l-.468 1.871-2.772.554c-1.397.28-2.411 1.517-2.411 2.943v1.36c0 1.573 1.221 2.853 2.763 2.976l-8.763 5.258v-15.234h6c1.103 0 2-.897 2-2v-8.143c.285.085.579.143.879.143 1.721 0 3.121-1.4 3.121-3.121 0-.834-.324-1.618-.914-2.207l-9.672-9.672c-1.291-1.289-3.537-1.29-4.828 0l-9.672 9.672c-.59.589-.914 1.373-.914 2.207 0 1.721 1.4 3.121 3.121 3.121.3 0 .594-.058.879-.143v8.143c0 1.103.897 2 2 2h6v15.234l-9.104-5.463c.7-1.445 1.104-3.06 1.104-4.771 0-6.065-4.935-11-11-11s-11 4.935-11 11 4.935 11 11 11c3.639 0 6.862-1.784 8.865-4.515l10.135 6.081v5.129c-1.992-2.834-5.28-4.695-9-4.695h-5v3c0 6.065 4.935 11 11 11h3v2h-26v2h54v-2h-26v-2h3c6.065 0 11-4.935 11-11v-3h-5c-3.72 0-7.008 1.861-9 4.695v-5.129l10.834-6.501c.547.574 1.313.935 2.166.935 1.302 0 2.402-.839 2.816-2h4.369c.414 1.161 1.514 2 2.816 2s2.402-.839 2.816-2h1.183c1.654 0 3-1.346 3-3v-1.36c0-1.426-1.014-2.663-2.411-2.942zm-27.589-4.698h-2v-4h2zm-10.879-10c-.618 0-1.121-.503-1.121-1.121 0-.3.116-.581.328-.793l9.672-9.671c.535-.535 1.465-.535 2 0l9.672 9.672c.212.211.328.492.328.792 0 .618-.503 1.121-1.121 1.121-.295 0-.584-.12-.793-.328l-9.086-9.086-9.086 9.086c-.209.208-.498.328-.793.328zm2.879.414 7-7 7 7v9.586h-4v-6h-6v6h-4zm-13 25.586c-4.963 0-9-4.038-9-9s4.037-9 9-9 9 4.038 9 9-4.037 9-9 9zm7 7v-1h3c4.35 0 7.988 3.103 8.82 7.211-2.115-2.75-5.177-4.617-8.656-5.197l-.328 1.973c3.516.586 6.546 2.697 8.313 5.791l.128.222h-2.277c-4.963 0-9-4.038-9-9zm23-1h3v1c0 4.962-4.037 9-9 9h-2.277l.127-.223c1.768-3.094 4.798-5.205 8.313-5.791l-.328-1.973c-3.479.58-6.541 2.447-8.656 5.197.833-4.107 4.471-7.21 8.821-7.21zm4-10c-.552 0-1-.449-1-1s.448-1 1-1 1 .449 1 1-.448 1-1 1zm10 0c-.552 0-1-.449-1-1s.448-1 1-1 1 .449 1 1-.448 1-1 1zm5-3c0 .551-.448 1-1 1h-1.184c-.414-1.161-1.514-2-2.816-2s-2.402.839-2.816 2h-4.369c-.414-1.161-1.514-2-2.816-2s-2.402.839-2.816 2h-1.183c-.552 0-1-.449-1-1v-1.36c0-.475.338-.888.804-.981l4.013-.802.774-3.099c.112-.446.511-.758.971-.758h6.877c.46 0 .858.312.971.758l.774 3.099 4.013.802c.465.093.803.506.803.981z"/></g></g></svg>