<svg id="Capa_1" enable-background="new 0 0 512 512" height="512" viewBox="0 0 512 512" width="512" xmlns="http://www.w3.org/2000/svg"><g><path d="m119.485 153.168h-87.485v-77.501h30v47.501h57.485z" fill="#3c4a83"/><path d="m47 94c-25.916 0-47-21.084-47-47s21.084-47 47-47 47 21.084 47 47-21.084 47-47 47z" fill="#60e2f4"/><path d="m480 153.168h-85.629v-30h55.629v-47.501h30z" fill="#2a386b"/><path d="m465 94c-25.916 0-47-21.084-47-47s21.084-47 47-47 47 21.084 47 47-21.084 47-47 47z" fill="#29c5ec"/><path d="m62 436.333h-30v-77.501h85.628v30h-55.628z" fill="#3c4a83"/><path d="m47 512c-25.916 0-47-21.084-47-47s21.084-47 47-47 47 21.084 47 47-21.084 47-47 47z" fill="#60e2f4"/><path d="m480 436.333h-30v-47.501h-55.629v-30h85.629z" fill="#2a386b"/><path d="m465 512c-25.916 0-47-21.084-47-47s21.084-47 47-47 47 21.084 47 47-21.084 47-47 47z" fill="#29c5ec"/><path d="m15 241h60.667v30h-60.667z" fill="#3c4a83"/><path d="m436.333 241h60.667v30h-60.667z" fill="#2a386b"/><path d="m241 436.33h30v60.67h-30z" fill="#3c4a83"/><path d="m256 436.33h15v60.67h-15z" fill="#2a386b"/><path d="m241 15h30v60.67h-30z" fill="#3c4a83"/><path d="m256 15h15v60.67h-15z" fill="#2a386b"/><circle cx="256" cy="256" fill="#fea000" r="195.33"/><path d="m451.33 256c0 107.885-87.445 195.33-195.33 195.33v-390.66c107.885 0 195.33 87.445 195.33 195.33z" fill="#f78002"/><path d="m319.048 251.33c-1.99-1.98-4.09-3.79-6.3-5.43 6.44-8.33 10.29-18.77 10.29-30.1 0-13.14-5.14-25.52-14.48-34.86s-21.72-14.48-34.86-14.48h-2.7v-23.78h-30v23.78h-49.25v30h16.32v119.08h-16.32v30h49.25v23.78h30v-23.78h9.05c30.43 0 55.2-24.77 55.2-55.21 0-14.7-5.76-28.55-16.2-39zm-80.979-54.87h35.64c5.12 0 9.97 2.02 13.64 5.7 3.67 3.67 5.69 8.51 5.69 13.64 0 10.61-8.58 19.24-19.16 19.33h-35.81zm41.979 119.08h-41.98v-50.4h35.63c.12 0 .23-.01.35-.01h6c6.68 0 13 2.63 17.78 7.41 4.78 4.79 7.42 11.1 7.42 17.79 0 13.9-11.31 25.21-25.2 25.21z" fill="#fbe200"/><path d="m335.248 290.33c0 30.44-24.77 55.21-55.2 55.21h-9.05v23.78h-15v-53.78h24.05c13.89 0 25.2-11.31 25.2-25.21 0-6.69-2.64-13-7.42-17.79-4.78-4.78-11.1-7.41-17.78-7.41h-6c-.12 0-.23.01-.35.01h-17.7v-30.01h17.88c10.58-.09 19.16-8.72 19.16-19.33 0-5.13-2.02-9.97-5.69-13.64-3.67-3.68-8.52-5.7-13.64-5.7h-17.71v-53.78h15v23.78h2.7c13.14 0 25.52 5.14 34.86 14.48s14.48 21.72 14.48 34.86c0 11.33-3.85 21.77-10.29 30.1 2.21 1.64 4.31 3.45 6.3 5.43 10.44 10.45 16.2 24.3 16.2 39z" fill="#febf01"/></g></svg>