<svg height="511pt" viewBox="1 -28 511.999 511" width="511pt" xmlns="http://www.w3.org/2000/svg"><path d="m9.78125 421.300781v-264.082031c0-13.273438 10.761719-24.035156 24.035156-24.035156h84.035156c9.183594 0 17.566407 5.234375 21.597657 13.484375l17.46875 35.746093h204.367187c13.273438 0 24.035156 10.761719 24.035156 24.039063v214.847656c0 13.277344-10.761718 24.039063-24.035156 24.039063h-327.46875c-13.273437 0-24.035156-10.761719-24.035156-24.039063zm0 0" fill="#e1f4fd"/><path d="m443.585938 145.117188v214.855468c0 13.277344-10.761719 24.039063-24.035157 24.039063h-34.222656v-177.558594c0-13.277344-10.761719-24.039063-24.039063-24.039063h-204.371093l-17.472657-35.742187c-4.03125-8.25-12.414062-13.480469-21.59375-13.480469h-49.796874v-37.300781c0-13.273437 10.761718-24.035156 24.035156-24.035156h84.03125c9.183594 0 17.5625 5.230469 21.597656 13.480469l17.46875 35.746093h204.363281c13.273438 0 24.035157 10.761719 24.035157 24.035157zm0 0" fill="#00e5be"/><path d="m501.78125 83.769531v214.859375c0 13.273438-10.761719 24.035156-24.035156 24.035156h-34.222656v-177.558593c0-13.277344-10.761719-24.035157-24.039063-24.035157h-204.375l-17.46875-35.746093c-4.035156-8.25-12.414063-13.480469-21.597656-13.480469h-49.792969v-37.300781c0-13.273438 10.761719-24.035157 24.035156-24.035157h84.03125c9.179688 0 17.5625 5.230469 21.59375 13.480469l17.472656 35.746094h204.363282c13.273437 0 24.035156 10.761719 24.035156 24.035156zm0 0" fill="#c4aea7"/><path d="m303.457031 367.941406h-60.144531c-12.753906 0-23.089844-10.335937-23.089844-23.089844v-60.144531c0-12.75 10.335938-23.089843 23.089844-23.089843h60.144531c12.75 0 23.089844 10.339843 23.089844 23.089843v60.144531c-.003906 12.753907-10.339844 23.089844-23.089844 23.089844zm0 0" fill="#ff9274"/><path d="m220.222656 292.730469h-127.632812l-24.535156 17.699219v26.398437h35.378906l12.132812-12.828125 11.566406 12.828125h30l11.496094-12.828125 10.492188 12.828125h41.101562zm0 0" fill="#ff9274"/><path d="m477.964844 49.726562h-198.121094l-14.730469-30.136718c-5.667969-11.597656-17.667969-19.089844-30.578125-19.089844h-84.03125c-18.769531 0-34.035156 15.269531-34.035156 34.035156v27.3125h-24.160156c-18.769532 0-34.035156 15.269532-34.035156 34.035156v27.292969h-24.238282c-18.765625 0-34.035156 15.269531-34.035156 34.035157v264.082031c0 18.769531 15.269531 34.039062 34.035156 34.039062h327.46875c18.765625 0 34.035156-15.269531 34.035156-34.039062v-27.289063h24.230469c18.765625 0 34.035157-15.269531 34.035157-34.039062v-27.308594h24.160156c18.765625 0 34.035156-15.269531 34.035156-34.039062v-214.855469c0-18.769531-15.269531-34.035157-34.035156-34.035157zm-102.425782 371.566407c0 7.742187-6.296874 14.039062-14.035156 14.039062h-327.46875c-7.738281 0-14.035156-6.296875-14.035156-14.039062v-264.082031c0-7.738282 6.296875-14.035157 14.035156-14.035157h34.148438c.03125 0 .058594.003907.089844.003907h49.792968c5.324219 0 10.273438 3.089843 12.609375 7.871093l10.4375 21.355469h-48.308593c-5.523438 0-10 4.476562-10 10s4.476562 10 10 10h64.324218.007813 204.367187c7.738282 0 14.035156 6.296875 14.035156 14.035156zm44.230469-47.292969h-24.222656v-167.558594c0-18.765625-15.269531-34.035156-34.039063-34.035156h-198.128906l-14.726562-30.140625c-5.667969-11.597656-17.671875-19.089844-30.582032-19.089844h-39.796874v-27.292969c0-7.742187 6.296874-14.039062 14.035156-14.039062h84.03125c.660156 0 1.3125.050781 1.957031.140625 4.519531.675781 8.539063 3.554687 10.574219 7.71875l10.441406 21.355469h-22.972656c-5.523438 0-10 4.476562-10 10 0 5.523437 4.476562 10 10 10h38.886718c.0625 0 .121094.011718.179688.011718h204.363281c.953125 0 1.882813.097657 2.785157.28125 6.378906 1.320313 11.1875 6.980469 11.1875 13.742188v177.558594c0 .378906.023437.75.0625 1.113281v36.199219c0 7.742187-6.296876 14.035156-14.035157 14.035156zm72.230469-75.382812c0 7.742187-6.296875 14.039062-14.035156 14.039062h-24.160156v-167.546875c0-16.4375-11.710938-30.191406-27.230469-33.351563-2.222657-.457031-4.519531-.699218-6.871094-.699218h-198.058594l-14.726562-30.125c-4.960938-10.148438-14.777344-17.15625-25.808594-18.746094-1.59375-.230469-3.210937-.355469-4.847656-.355469h-39.792969v-27.296875c0-7.738281 6.296875-14.035156 14.035156-14.035156h84.03125c5.324219 0 10.273438 3.089844 12.609375 7.871094l10.441407 21.355468h-16.855469c-5.523438 0-10 4.476563-10 10 0 5.523438 4.476562 10 10 10h237.234375c7.738281 0 14.035156 6.296876 14.035156 14.035157zm0 0"/><path d="m60.648438 187.953125c2.324218-3.484375 2.195312-8.128906-.28125-11.503906-2.503907-3.410157-7.070313-4.84375-11.085938-3.554688-3.976562 1.277344-6.804688 5.007813-6.9375 9.183594-.128906 4.117187 2.359375 7.984375 6.167969 9.566406 4.328125 1.800781 9.558593.246094 12.136719-3.691406zm0 0"/><path d="m303.675781 251.609375h-60.148437c-17.578125 0-31.996094 13.785156-33.023438 31.113281h-117.699218c-2.097657 0-4.144532.660156-5.847657 1.890625l-24.535156 17.695313c-2.605469 1.882812-4.148437 4.898437-4.148437 8.109375v26.402343c0 5.523438 4.476562 10 10 10h35.378906c2.75 0 5.378906-1.132812 7.269531-3.128906l4.6875-4.960937 4.3125 4.785156c1.894531 2.105469 4.59375 3.304687 7.425781 3.304687h30.003906c2.839844 0 5.550782-1.210937 7.445313-3.328124l3.703125-4.128907 3.097656 3.789063c1.898438 2.320312 4.742188 3.667968 7.742188 3.667968h31.164062c1.027344 17.328126 15.441406 31.109376 33.023438 31.109376h60.144531c18.246094 0 33.089844-14.839844 33.089844-33.085938v-60.144531c0-18.246094-14.84375-33.089844-33.085938-33.089844zm-127.089843 66.050781c-1.851563-2.261718-4.597657-3.601562-7.515626-3.667968-2.921874-.054688-5.722656 1.148437-7.671874 3.328124l-8.515626 9.5h-21.085937l-8.585937-9.523437c-1.871094-2.074219-4.519532-3.273437-7.308594-3.304687-.042969 0-.082032 0-.121094 0-2.746094 0-5.375 1.128906-7.265625 3.128906l-9.171875 9.699218h-21.070312v-11.28125l17.761718-12.816406h114.40625v24.097656h-26.363281zm140.175781 27.183594c0 7.21875-5.871094 13.089844-13.085938 13.089844h-60.148437c-7.214844 0-13.085938-5.875-13.085938-13.089844v-60.144531c0-7.214844 5.871094-13.089844 13.085938-13.089844h60.148437c7.214844 0 13.085938 5.875 13.085938 13.089844zm0 0"/><path d="m284.023438 290.5625c-13.351563 0-24.210938 10.859375-24.210938 24.210938 0 13.347656 10.859375 24.207031 24.210938 24.207031 13.347656 0 24.207031-10.859375 24.207031-24.207031 0-13.351563-10.859375-24.210938-24.207031-24.210938zm0 28.417969c-2.320313 0-4.210938-1.890625-4.210938-4.207031 0-2.320313 1.890625-4.210938 4.210938-4.210938 2.320312 0 4.207031 1.890625 4.207031 4.210938 0 2.320312-1.886719 4.207031-4.207031 4.207031zm0 0"/><path d="m327.636719 31.601562h135.777343c5.523438 0 10-4.476562 10-10 0-5.523437-4.476562-10-10-10h-135.777343c-5.519531 0-10 4.476563-10 10 0 5.523438 4.476562 10 10 10zm0 0"/><path d="m492.769531 25.425781c1.578125 3.847657 5.558594 6.382813 9.71875 6.164063 4.128907-.214844 7.746094-3.003906 9.023438-6.929688 1.296875-3.96875-.125-8.445312-3.425781-10.988281-3.351563-2.585937-8.117188-2.730469-11.636719-.386719-3.917969 2.609375-5.488281 7.796875-3.679688 12.140625zm0 0"/></svg>