<svg id="Capa_1" enable-background="new 0 0 512 512" height="512" viewBox="0 0 512 512" width="512" xmlns="http://www.w3.org/2000/svg"><g><g><g><path d="m315 512h-240c-40.635 0-74.268-32.314-75-72.026 0-108.369 48.252-157.654 90.82-199.358 33.076-32.388 59.18-57.979 59.18-105.616 0-52.969-55.049-108.838-55.605-109.409-4.277-4.292-5.566-10.737-3.252-16.333 2.343-5.611 7.793-9.258 13.857-9.258 27.041 0 41.602 9.712 53.32 17.52 10.459 6.972 18.721 12.48 36.68 12.48s26.221-5.508 36.68-12.48c11.718-7.808 26.279-17.52 53.32-17.52 6.064 0 11.514 3.647 13.857 9.258 2.314 5.596 1.025 12.041-3.252 16.333-.556.571-55.605 56.44-55.605 109.409 0 47.71 26.133 73.315 59.209 105.732 32.256 31.611 68.818 69.441 83.789 132.811 1.055 4.468.029 9.17-2.813 12.759-2.871 3.604-7.178 5.698-11.777 5.698h-38.408v105c0 8.291-6.709 15-15 15z" fill="#704c55"/></g></g><path d="m315 512c8.291 0 15-6.709 15-15v-105h38.408c4.6 0 8.906-2.095 11.777-5.698 2.842-3.589 3.867-8.291 2.813-12.759-14.971-63.369-51.533-101.199-83.789-132.811-33.076-32.417-59.209-58.022-59.209-105.732 0-52.969 55.049-108.838 55.605-109.409 4.277-4.292 5.566-10.737 3.252-16.333-2.343-5.611-7.793-9.258-13.857-9.258-27.041 0-41.602 9.712-53.32 17.52-10.459 6.972-18.721 12.48-36.68 12.48v482z" fill="#5a344b"/><g id="Investment_1_"><g><g><path d="m255 150h-120c-8.291 0-15-6.709-15-15s6.709-15 15-15h120c8.291 0 15 6.709 15 15s-6.709 15-15 15z" fill="#9b786f"/></g></g><path d="m512 437v60c0 8.399-6.599 15-15 15h-182c-8.401 0-15-6.601-15-15v-60l106-45z" fill="#ffe14d"/><path d="m512 377v60h-212v-60c0-8.401 6.599-15 15-15h182c8.401 0 15 6.599 15 15z" fill="#fb3"/></g><g><path d="m255 120h-60v30h60c8.291 0 15-6.709 15-15s-6.709-15-15-15z" fill="#704c55"/><path d="m497 512c8.401 0 15-6.601 15-15v-60l-106-45v120z" fill="#fb3"/><path d="m406 437h106v-60c0-8.401-6.599-15-15-15h-91z" fill="#e68a2e"/></g><path d="m195 330c-8.262 0-15-6.724-15-15s6.738-15 15-15 15 6.724 15 15c0 8.291 6.709 15 15 15s15-6.709 15-15c0-19.53-12.576-36.024-30-42.237v-17.763c0-8.291-6.709-15-15-15s-15 6.709-15 15v17.763c-17.424 6.213-30 22.707-30 42.237 0 24.814 20.186 45 45 45 8.262 0 15 6.724 15 15s-6.738 15-15 15-15-6.724-15-15c0-8.291-6.709-15-15-15s-15 6.709-15 15c0 19.53 12.576 36.024 30 42.237v17.763c0 8.291 6.709 15 15 15s15-6.709 15-15v-17.763c17.424-6.213 30-22.707 30-42.237 0-24.814-20.186-45-45-45z" fill="#9b786f"/><g><g fill="#704c55"><path d="m210 315c0 8.291 6.709 15 15 15s15-6.709 15-15c0-19.53-12.576-36.024-30-42.237v-17.763c0-8.291-6.709-15-15-15v60c8.262 0 15 6.724 15 15z"/><path d="m210 435v-17.763c17.424-6.213 30-22.707 30-42.237 0-24.814-20.186-45-45-45v30c8.262 0 15 6.724 15 15s-6.738 15-15 15v60c8.291 0 15-6.709 15-15z"/></g></g></g></svg>