<svg height="512" viewBox="0 0 512 512" width="512" xmlns="http://www.w3.org/2000/svg"><g id="Flat"><g fill="#4db7e5"><path d="m144 224h32v88h-32z"/><path d="m272 232h32v112h-32z"/><path d="m240 344v-144h-32v128z"/><path d="m336 288v-88h32v80z"/><path d="m400 152h32v120h-32z"/></g><path d="m120 168 24 24 72-72 72 80 120-120v40h32v-96h-96v32h40l-96 96-72-80z" fill="#f35244"/><path d="m80 328h32v136h-32z" fill="#4db7e5"/><path d="m394.46 316.9 5.54 19.1-72 80-8-32 5-10.24 23.74-52.74a26.339 26.339 0 0 1 45.72-4.12z" fill="#ed908b"/><path d="m444.96 315.04-60.96 68.96-56 40v-24s8-4.43 7.98-4.64v-.01l58.48-78.45 9.01-12.09a23.19172 23.19172 0 0 1 41.49 10.23z" fill="#ff9f9b"/><path d="m480 344-87.42993 87.43a193.13723 193.13723 0 0 1 -273.14014 0l-7.42993-7.43v-72a56.571 56.571 0 0 1 80 0l16 16h100a27.88685 27.88685 0 0 1 17 5.76 27.0495 27.0495 0 0 1 2.8 2.44 27.89208 27.89208 0 0 1 8.18 19.15v.01c.02.21.02.42.02.64a27.89344 27.89344 0 0 1 -6.37 17.78h.02a144.02949 144.02949 0 0 0 48.52991-31.96l69.82009-69.82a22.62742 22.62742 0 0 1 32 32z" fill="#ffdad2"/><path d="m16 312h64v176h-64z" fill="#3086cd"/><path d="m308 440h-100a8 8 0 0 1 0-16h100a27.99842 27.99842 0 0 0 23.27539-12.45557 8.00012 8.00012 0 0 1 13.28906 8.91114 43.97144 43.97144 0 0 1 -36.56445 19.54443z" fill="#ff9f9b"/></g></svg>